<svg viewBox="0 0 1024 1024" class="icon" version="1.1" xmlns="http://www.w3.org/2000/svg" fill="#000000"><g id="SVGRepo_bgCarrier" stroke-width="0"></g><g id="SVGRepo_tracerCarrier" stroke-linecap="round" stroke-linejoin="round"></g><g id="SVGRepo_iconCarrier">
<path d="M512 42.667C494.933 42.667 480 57.6 480 74.667v34.133c0 8.533 4.267 17.067 8.533 23.467-4.267 0-8.533-4.267-12.8-4.267-8.533 0-12.8 4.267-21.333 4.267s-17.067 0-25.6 0-21.333-4.267-29.867-4.267c-25.6 0-46.933 12.8-59.733 34.133-4.267 4.267-8.533 8.533-8.533 17.067-4.267 12.8-4.267 25.6-4.267 38.4v12.8c0 4.267-4.267 8.533-4.267 12.8 0 4.267 4.267 4.267 4.267 8.533v17.067c-12.8 17.067-21.333 38.4-25.6 59.733-4.267 4.267-4.267 8.533-8.533 12.8-4.267 0-8.533 0-8.533 4.267-8.533 4.267-17.067 8.533-25.6 12.8-8.533 4.267-17.067 8.533-21.333 12.8-8.533 4.267-17.067 12.8-21.333 21.333s-8.533 21.333-8.533 29.867c-4.267 12.8-4.267 25.6 0 38.4s12.8 25.6 21.333 34.133c4.267 8.533 17.067 12.8 29.867 17.067s25.6 4.267 38.4 8.533 25.6 12.8 38.4 17.067 25.6 4.267 38.4 8.533c4.267 0 8.533 0 12.8 4.267s8.533 8.533 12.8 12.8c4.267 4.267 8.533 8.533 12.8 17.067s8.533 17.067 12.8 25.6 8.533 17.067 17.067 25.6c8.533 8.533 21.333 17.067 29.867 25.6 4.267 4.267 12.8 8.533 17.067 12.8 4.267 8.533 12.8 17.067 17.067 29.867 8.533 17.067 17.067 34.133 29.867 46.933 12.8 17.067 25.6 34.133 42.667 46.933 21.333 17.067 46.933 29.867 72.533 34.133s53.333 8.533 76.8 4.267c25.6-4.267 51.2-17.067 72.533-34.133s38.4-42.667 51.2-68.267c12.8-25.6 25.6-53.333 29.867-76.8 4.267-17.067 0-34.133-4.267-51.2-4.267-17.067-12.8-34.133-17.067-51.2-8.533-21.333-17.067-42.667-29.867-64-8.533-12.8-17.067-25.6-25.6-34.133-8.533-8.533-21.333-21.333-34.133-34.133-8.533-8.533-21.333-17.067-34.133-25.6-4.267-4.267-8.533-4.267-12.8-4.267v-17.067c4.267 4.267 12.8 8.533 17.067 8.533s4.267-4.267 8.533-8.533c4.267-8.533 8.533-17.067 8.533-25.6s4.267-17.067 8.533-25.6c8.533-17.067 17.067-34.133 17.067-51.2 4.267-12.8 4.267-25.6 4.267-38.4s-4.267-25.6-8.533-38.4c-8.533-17.067-21.333-34.133-38.4-46.933-4.267-4.267-8.533-8.533-17.067-12.8 4.267-4.267 8.533-8.533 12.8-12.8 8.533-17.067 12.8-34.133 12.8-55.467 0-21.333-4.267-38.4-17.067-55.467-8.533-12.8-21.333-21.333-34.133-29.867-21.333-12.8-46.933-17.067-72.533-17.067-17.067 0-29.867-4.267-46.933-4.267-12.8 0-25.6 4.267-34.133 8.533-4.267 4.267-8.533 8.533-17.067 8.533-17.067 0-38.4-4.267-55.467-4.267-25.6 0-42.667 8.533-59.733 21.333-17.067 17.067-29.867 38.4-34.133 64-4.267 12.8-8.533 21.333-8.533 34.133v8.533h-4.267v-42.667c-4.267-17.067-17.067-29.867-34.133-29.867zM510.933 512c-8.533 0-17.067 4.267-25.6 8.533s-12.8 12.8-12.8 21.333c0 8.533 4.267 17.067 12.8 25.6 4.267 4.267 12.8 8.533 21.333 8.533 8.533 0 17.067-4.267 25.6-8.533s12.8-17.067 12.8-25.6c0-8.533-4.267-17.067-12.8-25.6-8.533-4.267-17.067-8.533-21.333-4.267zM742.4 704c-17.067 0-34.133 8.533-42.667 21.333s-12.8 34.133-4.267 51.2c8.533 12.8 21.333 21.333 38.4 21.333s34.133-8.533 42.667-21.333c8.533-17.067 12.8-34.133 4.267-51.2-4.267-12.8-17.067-21.333-34.133-21.333-4.267 0-4.267 0-4.267 0zM736 299.733c-25.6 0-46.933 21.333-46.933 46.933s21.333 46.933 46.933 46.933c25.6 0 46.933-21.333 46.933-46.933 0-25.6-21.333-46.933-46.933-46.933z" fill="#ffd069"></path></g></svg>
